<?xml version="1.0" encoding="utf-8"?>
<!-- Generator: Adobe Illustrator 24.2.3, SVG Export Plug-In . SVG Version: 6.00 Build 0)  -->
<svg version="1.1" id="Layer_1" xmlns="http://www.w3.org/2000/svg" xmlns:xlink="http://www.w3.org/1999/xlink" x="0px" y="0px"
	 viewBox="0 0 280.56 280.56" style="enable-background:new 0 0 280.56 280.56;" xml:space="preserve">
<path d="M146.25,143.73c14.68,3.25,54.55-3.45,129.2-3.45c-74.65,0-114.52-6.69-129.2-3.45c10.16-11.09,24.29-48.96,61.62-113.61
	c-37.33,64.65-63.06,95.83-67.58,110.17c-4.53-14.34-30.26-45.52-67.58-110.17c37.33,64.65,51.46,102.52,61.62,113.61
	c-14.68-3.25-54.55,3.45-129.2,3.45c74.65,0,114.52,6.69,129.2,3.45c-10.16,11.09-24.29,48.96-61.62,113.61
	c37.33-64.65,63.06-95.83,67.58-110.17c4.53,14.34,30.26,45.52,67.58,110.17C170.54,192.69,156.41,154.82,146.25,143.73z"/>
</svg>
