<?xml version="1.0" encoding="utf-8"?>
<!-- Generator: Adobe Illustrator 24.2.3, SVG Export Plug-In . SVG Version: 6.00 Build 0)  -->
<svg version="1.1" id="Layer_1" xmlns="http://www.w3.org/2000/svg" xmlns:xlink="http://www.w3.org/1999/xlink" x="0px" y="0px"
	 viewBox="0 0 280.56 280.56" style="enable-background:new 0 0 280.56 280.56;" xml:space="preserve">
<path d="M238.89,140.28c53.98-20.69,49.86-40.42-7.48-37.74c42.15-39.31,30.82-56.09-21.4-31.98c24.11-52.22,7.33-63.55-31.98-21.4
	c2.67-57.34-17.06-61.46-37.74-7.48c-20.69-53.98-40.42-49.86-37.74,7.48C63.23,7.01,46.44,18.33,70.55,70.55
	c-52.22-24.11-63.55-7.33-21.4,31.98c-57.34-2.67-61.46,17.06-7.48,37.74c-53.98,20.69-49.86,40.42,7.48,37.75
	c-42.15,39.31-30.82,56.09,21.4,31.98c-24.11,52.22-7.33,63.55,31.98,21.4c-2.67,57.34,17.06,61.46,37.74,7.48
	c20.69,53.98,40.42,49.86,37.74-7.48c39.31,42.15,56.09,30.82,31.98-21.4c52.22,24.11,63.55,7.33,21.4-31.98
	C288.75,180.7,292.87,160.97,238.89,140.28z"/>
</svg>
