<?xml version="1.0" encoding="utf-8"?>
<!-- Generator: Adobe Illustrator 24.2.3, SVG Export Plug-In . SVG Version: 6.00 Build 0)  -->
<svg version="1.1" id="Layer_1" xmlns="http://www.w3.org/2000/svg" xmlns:xlink="http://www.w3.org/1999/xlink" x="0px" y="0px"
	 viewBox="0 0 698.07 176.5" style="enable-background:new 0 0 698.07 176.5;" xml:space="preserve">
<style type="text/css">
	.st0{fill:#FFFFFF;}
</style>
<g>
	<path class="st0" d="M24.75,76.25l76.5,0V98.5l-76.5,0V175L0,175L0,0l115,0v22.25l-90.25,0L24.75,76.25z"/>
	<path class="st0" d="M183.55,70c-28.75,0-42.75,12.5-42.75,58.25l0,46.75h-25l0-125h25v23c8-17.5,21.75-25,42.25-25h0.5V70z"/>
	<path class="st0" d="M217.07,0l0,27.75h-25.75l0-27.75H217.07z M216.57,50h-24.75v125h24.75V50z"/>
	<path class="st0" d="M227.75,112.5c0-43.25,28-64.25,60.75-64c25.25,0.25,46.5,12.5,56.25,38l-21.75,8
		c-6.25-17.5-19.25-25-34.5-25.25C268.5,69,251.25,82,251.25,112.5s17.25,43.5,37.25,43.25c15.25-0.25,28.25-7.75,34.5-25.25
		l21.75,8c-9.75,25.5-31,37.75-56.25,38C255.75,176.75,227.75,155.75,227.75,112.5z"/>
	<path class="st0" d="M391.35,143c0,7.5,4,9.25,10,9.25h10.5l0,22.75h-10.5c-31,0-34.75-7.5-34.75-32V68.25h-20.5V48.5h20.5V25
		l24.75-10v33.5h20.5v19.75h-20.5V143z"/>
	<path class="st0" d="M446.87,0v27.75h-25.75V0H446.87z M446.37,50h-24.75l0,125h24.75L446.37,50z"/>
	<path class="st0" d="M519.04,176.5c-33,0-61.5-20.75-61.5-64s28.5-64.25,61.5-64c33,0.25,61.5,20.75,61.5,64
		S552.04,176.5,519.04,176.5z M519.04,69.25C498.79,69,481.29,82,481.29,112.5s17.5,43.25,37.75,43.25s37.75-12.75,37.75-43.25
		S539.29,69.5,519.04,69.25z"/>
	<path class="st0" d="M698.07,104.5V175h-25v-70.5c0-18.25-3.5-35.75-19.25-35.75c-10.75,0-37,2.25-37,59.5V175h-24.75l0-125h24.75
		l0,30.25c10-22.5,27.5-32.25,46.25-32.25C698.07,48,698.07,81,698.07,104.5z"/>
</g>
</svg>
