<?xml version="1.0" encoding="utf-8"?>
<!-- Generator: Adobe Illustrator 24.2.3, SVG Export Plug-In . SVG Version: 6.00 Build 0)  -->
<svg version="1.1" id="Layer_1" xmlns="http://www.w3.org/2000/svg" xmlns:xlink="http://www.w3.org/1999/xlink" x="0px" y="0px"
	 viewBox="0 0 558.69 178.51" style="enable-background:new 0 0 558.69 178.51;" xml:space="preserve">
<style type="text/css">
	.st0{fill:#FFFFFF;}
</style>
<g>
	<path class="st0" d="M140.5,176.76v-38.25c-7.75,21-24,40-59.5,40c-46,0-81-28.75-81-89.25C0,28.51,35-0.49,81,0.01
		c38.25,0.5,69.5,20.25,78.75,61.5L136,66.26c-7.25-32.25-28.25-45-55-45.25c-32.25-0.25-54.75,20-54.75,68.25
		s22.5,68.25,54.75,68.25c28,0,52.25-15,58.25-50.75H100l2.5-21.25H162v91.25H140.5z"/>
	<path class="st0" d="M235.1,178.26c-33,0-61.5-20.75-61.5-64s28.5-64.25,61.5-64s61.5,20.75,61.5,64S268.1,178.26,235.1,178.26z
		 M235.1,71.01c-20.25-0.25-37.75,12.75-37.75,43.25s17.5,43.25,37.75,43.25s37.75-12.75,37.75-43.25S255.35,71.26,235.1,71.01z"/>
	<path class="st0" d="M365.6,178.26c-33,0-61.5-20.75-61.5-64s28.5-64.25,61.5-64s61.5,20.75,61.5,64S398.6,178.26,365.6,178.26z
		 M365.6,71.01c-20.25-0.25-37.75,12.75-37.75,43.25s17.5,43.25,37.75,43.25s37.75-12.75,37.75-43.25S385.85,71.26,365.6,71.01z"/>
	<path class="st0" d="M558.69,176.76h-25v-21.5c-9,16-24.25,23-44,23c-33,0-54.5-20.75-54.5-64s21.5-63.75,54.5-64
		c19.75-0.25,35,7,44,23V1.76h25V176.76z M533.69,114.26c0-33.5-17.5-44.75-37.5-44.5c-22.25,0.25-36.5,15.25-36.5,44.5
		s14.25,44.5,36.5,44.5C516.19,158.76,533.69,147.76,533.69,114.26z"/>
</g>
</svg>
